<?xml version="1.0" encoding="utf-8"?>
<!-- Generator: Adobe Illustrator 22.1.0, SVG Export Plug-In . SVG Version: 6.00 Build 0)  -->
<svg version="1.1" id="Layer_1" xmlns="http://www.w3.org/2000/svg" xmlns:xlink="http://www.w3.org/1999/xlink" x="0px" y="0px"
	 viewBox="0 0 24 24" style="enable-background:new 0 0 24 24;" xml:space="preserve">
<style type="text/css">
	.st0{fill:none;}
	.st1{fill:#727272;}
	.st2{fill:#1C7CDC;}
</style>
<path class="st0" d="M0,0v24h24V0H0z"/>
<rect x="11" y="12" class="st1" width="8" height="1"/>
<rect x="4" y="12" class="st1" width="2" height="1"/>
<path class="st2" d="M9,12v1H8v-1H9 M10,11H7v3h3V11L10,11z"/>
<path class="st2" d="M15,7v1h-1V7H15 M16,6h-3v3h3V6L16,6z"/>
<rect x="4" y="7" class="st1" width="8" height="1"/>
<rect x="17" y="7" class="st1" width="2" height="1"/>
<path class="st2" d="M15,17v1h-1v-1H15 M16,16h-3v3h3V16L16,16z"/>
<rect x="4" y="17" class="st1" width="8" height="1"/>
<rect x="17" y="17" class="st1" width="2" height="1"/>
</svg>
